<svg xmlns="http://www.w3.org/2000/svg" width="132" height="24" viewBox="0 0 132 24" fill="none">
<path d="M27.3182 19.206C26.6222 19.206 26.0019 19.0852 25.4574 18.8438C24.9129 18.5975 24.482 18.2353 24.1648 17.7571C23.8523 17.2741 23.696 16.6728 23.696 15.9531C23.696 15.3471 23.8073 14.8381 24.0298 14.4261C24.2524 14.0142 24.5554 13.6828 24.9389 13.4318C25.3224 13.1809 25.758 12.9915 26.2457 12.8636C26.7382 12.7358 27.2543 12.6458 27.794 12.5938C28.4285 12.5275 28.9399 12.4659 29.3281 12.4091C29.7164 12.3475 29.9981 12.2576 30.1733 12.1392C30.3485 12.0208 30.4361 11.8456 30.4361 11.6136V11.571C30.4361 11.1212 30.294 10.7732 30.0099 10.527C29.7306 10.2808 29.3329 10.1577 28.8168 10.1577C28.2723 10.1577 27.839 10.2784 27.517 10.5199C27.1951 10.7566 26.982 11.0549 26.8778 11.4148L24.0795 11.1875C24.2216 10.5246 24.5009 9.9517 24.9176 9.46875C25.3343 8.98106 25.8717 8.60701 26.5298 8.34659C27.1927 8.08144 27.9598 7.94886 28.831 7.94886C29.437 7.94886 30.017 8.01989 30.571 8.16193C31.1297 8.30398 31.6245 8.52415 32.0554 8.82244C32.491 9.12074 32.8343 9.50426 33.0852 9.97301C33.3362 10.437 33.4616 10.9934 33.4616 11.642V19H30.5923V17.4872H30.5071C30.3319 17.8281 30.0975 18.1288 29.804 18.3892C29.5104 18.6449 29.1577 18.8461 28.7457 18.9929C28.3338 19.1349 27.858 19.206 27.3182 19.206ZM28.1847 17.1179C28.6297 17.1179 29.0227 17.0303 29.3636 16.8551C29.7045 16.6752 29.9721 16.4337 30.1662 16.1307C30.3603 15.8277 30.4574 15.4844 30.4574 15.1009V13.9432C30.3627 14.0047 30.2325 14.0616 30.0668 14.1136C29.9058 14.161 29.7235 14.206 29.5199 14.2486C29.3163 14.2865 29.1127 14.322 28.9091 14.3551C28.7055 14.3835 28.5208 14.4096 28.3551 14.4332C28 14.4853 27.6899 14.5682 27.4247 14.6818C27.1596 14.7955 26.9536 14.9493 26.8068 15.1435C26.66 15.3329 26.5866 15.5696 26.5866 15.8537C26.5866 16.2656 26.7358 16.5805 27.0341 16.7983C27.3371 17.0114 27.7206 17.1179 28.1847 17.1179ZM35.8089 23.0909V8.09091H38.7919V9.9233H38.9268C39.0594 9.62973 39.2512 9.33144 39.5021 9.02841C39.7578 8.72064 40.0893 8.46496 40.4964 8.26136C40.9084 8.05303 41.4197 7.94886 42.0305 7.94886C42.826 7.94886 43.5599 8.1572 44.2322 8.57386C44.9046 8.9858 45.442 9.60843 45.8445 10.4418C46.2469 11.2704 46.4482 12.3097 46.4482 13.5597C46.4482 14.7765 46.2517 15.804 45.8587 16.642C45.4704 17.4754 44.9401 18.1075 44.2678 18.5384C43.6001 18.9645 42.852 19.1776 42.0234 19.1776C41.4363 19.1776 40.9368 19.0805 40.5249 18.8864C40.1177 18.6922 39.7839 18.4484 39.5234 18.1548C39.263 17.8565 39.0642 17.5559 38.9268 17.2528H38.8345V23.0909H35.8089ZM38.7706 13.5455C38.7706 14.1941 38.8606 14.7599 39.0405 15.2429C39.2204 15.7259 39.4808 16.1023 39.8217 16.3722C40.1626 16.6373 40.5769 16.7699 41.0646 16.7699C41.5571 16.7699 41.9737 16.6349 42.3146 16.3651C42.6555 16.0904 42.9136 15.7116 43.0888 15.2287C43.2687 14.741 43.3587 14.1799 43.3587 13.5455C43.3587 12.9157 43.2711 12.3617 43.0959 11.8835C42.9207 11.4053 42.6626 11.0312 42.3217 10.7614C41.9808 10.4915 41.5618 10.3565 41.0646 10.3565C40.5722 10.3565 40.1555 10.4867 39.8146 10.7472C39.4785 11.0076 39.2204 11.3769 39.0405 11.8551C38.8606 12.3333 38.7706 12.8968 38.7706 13.5455ZM48.4652 23.0909V8.09091H51.4482V9.9233H51.5831C51.7157 9.62973 51.9074 9.33144 52.1584 9.02841C52.4141 8.72064 52.7455 8.46496 53.1527 8.26136C53.5646 8.05303 54.076 7.94886 54.6868 7.94886C55.4822 7.94886 56.2161 8.1572 56.8885 8.57386C57.5608 8.9858 58.0982 9.60843 58.5007 10.4418C58.9032 11.2704 59.1044 12.3097 59.1044 13.5597C59.1044 14.7765 58.9079 15.804 58.5149 16.642C58.1267 17.4754 57.5964 18.1075 56.924 18.5384C56.2564 18.9645 55.5083 19.1776 54.6797 19.1776C54.0926 19.1776 53.593 19.0805 53.1811 18.8864C52.7739 18.6922 52.4401 18.4484 52.1797 18.1548C51.9193 17.8565 51.7204 17.5559 51.5831 17.2528H51.4908V23.0909H48.4652ZM51.4268 13.5455C51.4268 14.1941 51.5168 14.7599 51.6967 15.2429C51.8767 15.7259 52.1371 16.1023 52.478 16.3722C52.8189 16.6373 53.2332 16.7699 53.7209 16.7699C54.2133 16.7699 54.63 16.6349 54.9709 16.3651C55.3118 16.0904 55.5698 15.7116 55.745 15.2287C55.925 14.741 56.0149 14.1799 56.0149 13.5455C56.0149 12.9157 55.9273 12.3617 55.7521 11.8835C55.5769 11.4053 55.3189 11.0312 54.978 10.7614C54.6371 10.4915 54.218 10.3565 53.7209 10.3565C53.2285 10.3565 52.8118 10.4867 52.4709 10.7472C52.1347 11.0076 51.8767 11.3769 51.6967 11.8551C51.5168 12.3333 51.4268 12.8968 51.4268 13.5455ZM64.147 4.45455V19H61.1214V4.45455H64.147ZM68.4386 23.0909C68.055 23.0909 67.6952 23.0601 67.359 22.9986C67.0276 22.9418 66.753 22.8684 66.5352 22.7784L67.217 20.5199C67.5721 20.6288 67.8917 20.688 68.1758 20.6974C68.4646 20.7069 68.7132 20.6406 68.9215 20.4986C69.1346 20.3565 69.3074 20.1151 69.44 19.7741L69.6175 19.3125L65.7042 8.09091H68.886L71.1445 16.1023H71.2582L73.538 8.09091H76.7411L72.5011 20.179C72.2975 20.7661 72.0205 21.2775 71.6701 21.7131C71.3245 22.1534 70.8865 22.492 70.3562 22.7287C69.8259 22.9702 69.1867 23.0909 68.4386 23.0909Z" fill="white"/>
<path d="M77.1087 6.99006V4.45455H89.0547V6.99006H84.6016V19H81.5618V6.99006H77.1087ZM89.8324 19V8.09091H92.7656V9.99432H92.8793C93.0781 9.31723 93.4119 8.80587 93.8807 8.46023C94.3494 8.10985 94.8892 7.93466 95.5 7.93466C95.6515 7.93466 95.8149 7.94413 95.9901 7.96307C96.1652 7.98201 96.3191 8.00805 96.4517 8.04119V10.7259C96.3097 10.6832 96.1132 10.6454 95.8622 10.6122C95.6113 10.5791 95.3816 10.5625 95.1733 10.5625C94.7282 10.5625 94.3305 10.6596 93.9801 10.8537C93.6345 11.0431 93.3598 11.3082 93.1562 11.6491C92.9574 11.9901 92.858 12.383 92.858 12.8281V19H89.8324ZM100.814 19.206C100.118 19.206 99.498 19.0852 98.9535 18.8438C98.409 18.5975 97.9781 18.2353 97.6609 17.7571C97.3484 17.2741 97.1921 16.6728 97.1921 15.9531C97.1921 15.3471 97.3034 14.8381 97.5259 14.4261C97.7485 14.0142 98.0515 13.6828 98.435 13.4318C98.8185 13.1809 99.2541 12.9915 99.7418 12.8636C100.234 12.7358 100.75 12.6458 101.29 12.5938C101.925 12.5275 102.436 12.4659 102.824 12.4091C103.212 12.3475 103.494 12.2576 103.669 12.1392C103.845 12.0208 103.932 11.8456 103.932 11.6136V11.571C103.932 11.1212 103.79 10.7732 103.506 10.527C103.227 10.2808 102.829 10.1577 102.313 10.1577C101.768 10.1577 101.335 10.2784 101.013 10.5199C100.691 10.7566 100.478 11.0549 100.374 11.4148L97.5756 11.1875C97.7177 10.5246 97.997 9.9517 98.4137 9.46875C98.8304 8.98106 99.3678 8.60701 100.026 8.34659C100.689 8.08144 101.456 7.94886 102.327 7.94886C102.933 7.94886 103.513 8.01989 104.067 8.16193C104.626 8.30398 105.121 8.52415 105.551 8.82244C105.987 9.12074 106.33 9.50426 106.581 9.97301C106.832 10.437 106.958 10.9934 106.958 11.642V19H104.088V17.4872H104.003C103.828 17.8281 103.594 18.1288 103.3 18.3892C103.007 18.6449 102.654 18.8461 102.242 18.9929C101.83 19.1349 101.354 19.206 100.814 19.206ZM101.681 17.1179C102.126 17.1179 102.519 17.0303 102.86 16.8551C103.201 16.6752 103.468 16.4337 103.662 16.1307C103.856 15.8277 103.953 15.4844 103.953 15.1009V13.9432C103.859 14.0047 103.729 14.0616 103.563 14.1136C103.402 14.161 103.22 14.206 103.016 14.2486C102.812 14.2865 102.609 14.322 102.405 14.3551C102.202 14.3835 102.017 14.4096 101.851 14.4332C101.496 14.4853 101.186 14.5682 100.921 14.6818C100.656 14.7955 100.45 14.9493 100.303 15.1435C100.156 15.3329 100.083 15.5696 100.083 15.8537C100.083 16.2656 100.232 16.5805 100.53 16.7983C100.833 17.0114 101.217 17.1179 101.681 17.1179ZM114.234 19.2131C113.117 19.2131 112.155 18.9763 111.35 18.5028C110.55 18.0246 109.935 17.3617 109.504 16.5142C109.078 15.6667 108.865 14.6913 108.865 13.5881C108.865 12.4706 109.08 11.4905 109.511 10.6477C109.947 9.80019 110.565 9.13968 111.365 8.66619C112.165 8.18797 113.117 7.94886 114.22 7.94886C115.172 7.94886 116.005 8.12169 116.72 8.46733C117.435 8.81297 118.001 9.2983 118.417 9.9233C118.834 10.5483 119.064 11.2822 119.106 12.125H116.251C116.171 11.5805 115.958 11.1425 115.612 10.8111C115.271 10.4749 114.824 10.3068 114.27 10.3068C113.801 10.3068 113.391 10.4347 113.041 10.6903C112.695 10.9413 112.425 11.3082 112.231 11.7912C112.037 12.2741 111.94 12.8589 111.94 13.5455C111.94 14.2415 112.035 14.8333 112.224 15.321C112.418 15.8087 112.69 16.1804 113.041 16.4361C113.391 16.6918 113.801 16.8196 114.27 16.8196C114.615 16.8196 114.925 16.7486 115.2 16.6065C115.479 16.4645 115.709 16.2585 115.889 15.9886C116.074 15.714 116.194 15.3849 116.251 15.0014H119.106C119.059 15.8348 118.832 16.5687 118.424 17.2031C118.022 17.8329 117.466 18.3253 116.755 18.6804C116.045 19.0355 115.205 19.2131 114.234 19.2131ZM123.785 15.8608L123.792 12.2315H124.232L127.727 8.09091H131.2L126.505 13.5739H125.788L123.785 15.8608ZM121.043 19V4.45455H124.069V19H121.043ZM127.862 19L124.651 14.2486L126.668 12.1108L131.406 19H127.862Z" fill="#2196F3"/>
<path d="M3.36538 12.0544C2.01394 11.5736 1.33822 11.3331 1.13689 10.9684C0.962426 10.6524 0.954262 10.2708 1.11506 9.94761C1.30062 9.57464 1.96545 9.30554 3.2951 8.76735L15.8282 3.69444C17.1377 3.16438 17.7925 2.89935 18.2062 3.03523C18.5652 3.15318 18.8468 3.43478 18.9648 3.79383C19.1007 4.20748 18.8356 4.86226 18.3056 6.17182L13.2327 18.7048C12.6945 20.0345 12.4254 20.6994 12.0524 20.885C11.7292 21.0457 11.3476 21.0376 11.0315 20.8631C10.6669 20.6617 10.4264 19.9861 9.94557 18.6346L8.4733 14.497C8.37977 14.2341 8.333 14.1026 8.25656 13.9928C8.18891 13.8955 8.10448 13.8111 8.00715 13.7434C7.8974 13.667 7.76593 13.6202 7.50301 13.5267L3.36538 12.0544Z" stroke="#2196F3" stroke-width="2" stroke-linecap="round" stroke-linejoin="round"/>
</svg>