<svg xmlns="http://www.w3.org/2000/svg" width="132" height="24" viewBox="0 0 132 24" fill="none">
<mask id="path-1-outside-1_664_12" maskUnits="userSpaceOnUse" x="23" y="3" width="55" height="21" fill="black">
<rect fill="white" x="23" y="3" width="55" height="21"/>
<path d="M27.3182 19.206C26.6222 19.206 26.0019 19.0852 25.4574 18.8438C24.9129 18.5975 24.482 18.2353 24.1648 17.7571C23.8523 17.2741 23.696 16.6728 23.696 15.9531C23.696 15.3471 23.8073 14.8381 24.0298 14.4261C24.2524 14.0142 24.5554 13.6828 24.9389 13.4318C25.3224 13.1809 25.758 12.9915 26.2457 12.8636C26.7382 12.7358 27.2543 12.6458 27.794 12.5938C28.4285 12.5275 28.9399 12.4659 29.3281 12.4091C29.7164 12.3475 29.9981 12.2576 30.1733 12.1392C30.3485 12.0208 30.4361 11.8456 30.4361 11.6136V11.571C30.4361 11.1212 30.294 10.7732 30.0099 10.527C29.7306 10.2808 29.3329 10.1577 28.8168 10.1577C28.2723 10.1577 27.839 10.2784 27.517 10.5199C27.1951 10.7566 26.982 11.0549 26.8778 11.4148L24.0795 11.1875C24.2216 10.5246 24.5009 9.9517 24.9176 9.46875C25.3343 8.98106 25.8717 8.60701 26.5298 8.34659C27.1927 8.08144 27.9598 7.94886 28.831 7.94886C29.437 7.94886 30.017 8.01989 30.571 8.16193C31.1297 8.30398 31.6245 8.52415 32.0554 8.82244C32.491 9.12074 32.8343 9.50426 33.0852 9.97301C33.3362 10.437 33.4616 10.9934 33.4616 11.642V19H30.5923V17.4872H30.5071C30.3319 17.8281 30.0975 18.1288 29.804 18.3892C29.5104 18.6449 29.1577 18.8461 28.7457 18.9929C28.3338 19.1349 27.858 19.206 27.3182 19.206ZM28.1847 17.1179C28.6297 17.1179 29.0227 17.0303 29.3636 16.8551C29.7045 16.6752 29.9721 16.4337 30.1662 16.1307C30.3603 15.8277 30.4574 15.4844 30.4574 15.1009V13.9432C30.3627 14.0047 30.2325 14.0616 30.0668 14.1136C29.9058 14.161 29.7235 14.206 29.5199 14.2486C29.3163 14.2865 29.1127 14.322 28.9091 14.3551C28.7055 14.3835 28.5208 14.4096 28.3551 14.4332C28 14.4853 27.6899 14.5682 27.4247 14.6818C27.1596 14.7955 26.9536 14.9493 26.8068 15.1435C26.66 15.3329 26.5866 15.5696 26.5866 15.8537C26.5866 16.2656 26.7358 16.5805 27.0341 16.7983C27.3371 17.0114 27.7206 17.1179 28.1847 17.1179ZM35.8089 23.0909V8.09091H38.7919V9.9233H38.9268C39.0594 9.62973 39.2512 9.33144 39.5021 9.02841C39.7578 8.72064 40.0893 8.46496 40.4964 8.26136C40.9084 8.05303 41.4197 7.94886 42.0305 7.94886C42.826 7.94886 43.5599 8.1572 44.2322 8.57386C44.9046 8.9858 45.442 9.60843 45.8445 10.4418C46.2469 11.2704 46.4482 12.3097 46.4482 13.5597C46.4482 14.7765 46.2517 15.804 45.8587 16.642C45.4704 17.4754 44.9401 18.1075 44.2678 18.5384C43.6001 18.9645 42.852 19.1776 42.0234 19.1776C41.4363 19.1776 40.9368 19.0805 40.5249 18.8864C40.1177 18.6922 39.7839 18.4484 39.5234 18.1548C39.263 17.8565 39.0642 17.5559 38.9268 17.2528H38.8345V23.0909H35.8089ZM38.7706 13.5455C38.7706 14.1941 38.8606 14.7599 39.0405 15.2429C39.2204 15.7259 39.4808 16.1023 39.8217 16.3722C40.1626 16.6373 40.5769 16.7699 41.0646 16.7699C41.5571 16.7699 41.9737 16.6349 42.3146 16.3651C42.6555 16.0904 42.9136 15.7116 43.0888 15.2287C43.2687 14.741 43.3587 14.1799 43.3587 13.5455C43.3587 12.9157 43.2711 12.3617 43.0959 11.8835C42.9207 11.4053 42.6626 11.0312 42.3217 10.7614C41.9808 10.4915 41.5618 10.3565 41.0646 10.3565C40.5722 10.3565 40.1555 10.4867 39.8146 10.7472C39.4785 11.0076 39.2204 11.3769 39.0405 11.8551C38.8606 12.3333 38.7706 12.8968 38.7706 13.5455ZM48.4652 23.0909V8.09091H51.4482V9.9233H51.5831C51.7157 9.62973 51.9074 9.33144 52.1584 9.02841C52.4141 8.72064 52.7455 8.46496 53.1527 8.26136C53.5646 8.05303 54.076 7.94886 54.6868 7.94886C55.4822 7.94886 56.2161 8.1572 56.8885 8.57386C57.5608 8.9858 58.0982 9.60843 58.5007 10.4418C58.9032 11.2704 59.1044 12.3097 59.1044 13.5597C59.1044 14.7765 58.9079 15.804 58.5149 16.642C58.1267 17.4754 57.5964 18.1075 56.924 18.5384C56.2564 18.9645 55.5083 19.1776 54.6797 19.1776C54.0926 19.1776 53.593 19.0805 53.1811 18.8864C52.7739 18.6922 52.4401 18.4484 52.1797 18.1548C51.9193 17.8565 51.7204 17.5559 51.5831 17.2528H51.4908V23.0909H48.4652ZM51.4268 13.5455C51.4268 14.1941 51.5168 14.7599 51.6967 15.2429C51.8767 15.7259 52.1371 16.1023 52.478 16.3722C52.8189 16.6373 53.2332 16.7699 53.7209 16.7699C54.2133 16.7699 54.63 16.6349 54.9709 16.3651C55.3118 16.0904 55.5698 15.7116 55.745 15.2287C55.925 14.741 56.0149 14.1799 56.0149 13.5455C56.0149 12.9157 55.9273 12.3617 55.7521 11.8835C55.5769 11.4053 55.3189 11.0312 54.978 10.7614C54.6371 10.4915 54.218 10.3565 53.7209 10.3565C53.2285 10.3565 52.8118 10.4867 52.4709 10.7472C52.1347 11.0076 51.8767 11.3769 51.6967 11.8551C51.5168 12.3333 51.4268 12.8968 51.4268 13.5455ZM64.147 4.45455V19H61.1214V4.45455H64.147ZM68.4386 23.0909C68.055 23.0909 67.6952 23.0601 67.359 22.9986C67.0276 22.9418 66.753 22.8684 66.5352 22.7784L67.217 20.5199C67.5721 20.6288 67.8917 20.688 68.1758 20.6974C68.4646 20.7069 68.7132 20.6406 68.9215 20.4986C69.1346 20.3565 69.3074 20.1151 69.44 19.7741L69.6175 19.3125L65.7042 8.09091H68.886L71.1445 16.1023H71.2582L73.538 8.09091H76.7411L72.5011 20.179C72.2975 20.7661 72.0205 21.2775 71.6701 21.7131C71.3245 22.1534 70.8865 22.492 70.3562 22.7287C69.8259 22.9702 69.1867 23.0909 68.4386 23.0909Z"/>
</mask>
<path d="M27.3182 19.206C26.6222 19.206 26.0019 19.0852 25.4574 18.8438C24.9129 18.5975 24.482 18.2353 24.1648 17.7571C23.8523 17.2741 23.696 16.6728 23.696 15.9531C23.696 15.3471 23.8073 14.8381 24.0298 14.4261C24.2524 14.0142 24.5554 13.6828 24.9389 13.4318C25.3224 13.1809 25.758 12.9915 26.2457 12.8636C26.7382 12.7358 27.2543 12.6458 27.794 12.5938C28.4285 12.5275 28.9399 12.4659 29.3281 12.4091C29.7164 12.3475 29.9981 12.2576 30.1733 12.1392C30.3485 12.0208 30.4361 11.8456 30.4361 11.6136V11.571C30.4361 11.1212 30.294 10.7732 30.0099 10.527C29.7306 10.2808 29.3329 10.1577 28.8168 10.1577C28.2723 10.1577 27.839 10.2784 27.517 10.5199C27.1951 10.7566 26.982 11.0549 26.8778 11.4148L24.0795 11.1875C24.2216 10.5246 24.5009 9.9517 24.9176 9.46875C25.3343 8.98106 25.8717 8.60701 26.5298 8.34659C27.1927 8.08144 27.9598 7.94886 28.831 7.94886C29.437 7.94886 30.017 8.01989 30.571 8.16193C31.1297 8.30398 31.6245 8.52415 32.0554 8.82244C32.491 9.12074 32.8343 9.50426 33.0852 9.97301C33.3362 10.437 33.4616 10.9934 33.4616 11.642V19H30.5923V17.4872H30.5071C30.3319 17.8281 30.0975 18.1288 29.804 18.3892C29.5104 18.6449 29.1577 18.8461 28.7457 18.9929C28.3338 19.1349 27.858 19.206 27.3182 19.206ZM28.1847 17.1179C28.6297 17.1179 29.0227 17.0303 29.3636 16.8551C29.7045 16.6752 29.9721 16.4337 30.1662 16.1307C30.3603 15.8277 30.4574 15.4844 30.4574 15.1009V13.9432C30.3627 14.0047 30.2325 14.0616 30.0668 14.1136C29.9058 14.161 29.7235 14.206 29.5199 14.2486C29.3163 14.2865 29.1127 14.322 28.9091 14.3551C28.7055 14.3835 28.5208 14.4096 28.3551 14.4332C28 14.4853 27.6899 14.5682 27.4247 14.6818C27.1596 14.7955 26.9536 14.9493 26.8068 15.1435C26.66 15.3329 26.5866 15.5696 26.5866 15.8537C26.5866 16.2656 26.7358 16.5805 27.0341 16.7983C27.3371 17.0114 27.7206 17.1179 28.1847 17.1179ZM35.8089 23.0909V8.09091H38.7919V9.9233H38.9268C39.0594 9.62973 39.2512 9.33144 39.5021 9.02841C39.7578 8.72064 40.0893 8.46496 40.4964 8.26136C40.9084 8.05303 41.4197 7.94886 42.0305 7.94886C42.826 7.94886 43.5599 8.1572 44.2322 8.57386C44.9046 8.9858 45.442 9.60843 45.8445 10.4418C46.2469 11.2704 46.4482 12.3097 46.4482 13.5597C46.4482 14.7765 46.2517 15.804 45.8587 16.642C45.4704 17.4754 44.9401 18.1075 44.2678 18.5384C43.6001 18.9645 42.852 19.1776 42.0234 19.1776C41.4363 19.1776 40.9368 19.0805 40.5249 18.8864C40.1177 18.6922 39.7839 18.4484 39.5234 18.1548C39.263 17.8565 39.0642 17.5559 38.9268 17.2528H38.8345V23.0909H35.8089ZM38.7706 13.5455C38.7706 14.1941 38.8606 14.7599 39.0405 15.2429C39.2204 15.7259 39.4808 16.1023 39.8217 16.3722C40.1626 16.6373 40.5769 16.7699 41.0646 16.7699C41.5571 16.7699 41.9737 16.6349 42.3146 16.3651C42.6555 16.0904 42.9136 15.7116 43.0888 15.2287C43.2687 14.741 43.3587 14.1799 43.3587 13.5455C43.3587 12.9157 43.2711 12.3617 43.0959 11.8835C42.9207 11.4053 42.6626 11.0312 42.3217 10.7614C41.9808 10.4915 41.5618 10.3565 41.0646 10.3565C40.5722 10.3565 40.1555 10.4867 39.8146 10.7472C39.4785 11.0076 39.2204 11.3769 39.0405 11.8551C38.8606 12.3333 38.7706 12.8968 38.7706 13.5455ZM48.4652 23.0909V8.09091H51.4482V9.9233H51.5831C51.7157 9.62973 51.9074 9.33144 52.1584 9.02841C52.4141 8.72064 52.7455 8.46496 53.1527 8.26136C53.5646 8.05303 54.076 7.94886 54.6868 7.94886C55.4822 7.94886 56.2161 8.1572 56.8885 8.57386C57.5608 8.9858 58.0982 9.60843 58.5007 10.4418C58.9032 11.2704 59.1044 12.3097 59.1044 13.5597C59.1044 14.7765 58.9079 15.804 58.5149 16.642C58.1267 17.4754 57.5964 18.1075 56.924 18.5384C56.2564 18.9645 55.5083 19.1776 54.6797 19.1776C54.0926 19.1776 53.593 19.0805 53.1811 18.8864C52.7739 18.6922 52.4401 18.4484 52.1797 18.1548C51.9193 17.8565 51.7204 17.5559 51.5831 17.2528H51.4908V23.0909H48.4652ZM51.4268 13.5455C51.4268 14.1941 51.5168 14.7599 51.6967 15.2429C51.8767 15.7259 52.1371 16.1023 52.478 16.3722C52.8189 16.6373 53.2332 16.7699 53.7209 16.7699C54.2133 16.7699 54.63 16.6349 54.9709 16.3651C55.3118 16.0904 55.5698 15.7116 55.745 15.2287C55.925 14.741 56.0149 14.1799 56.0149 13.5455C56.0149 12.9157 55.9273 12.3617 55.7521 11.8835C55.5769 11.4053 55.3189 11.0312 54.978 10.7614C54.6371 10.4915 54.218 10.3565 53.7209 10.3565C53.2285 10.3565 52.8118 10.4867 52.4709 10.7472C52.1347 11.0076 51.8767 11.3769 51.6967 11.8551C51.5168 12.3333 51.4268 12.8968 51.4268 13.5455ZM64.147 4.45455V19H61.1214V4.45455H64.147ZM68.4386 23.0909C68.055 23.0909 67.6952 23.0601 67.359 22.9986C67.0276 22.9418 66.753 22.8684 66.5352 22.7784L67.217 20.5199C67.5721 20.6288 67.8917 20.688 68.1758 20.6974C68.4646 20.7069 68.7132 20.6406 68.9215 20.4986C69.1346 20.3565 69.3074 20.1151 69.44 19.7741L69.6175 19.3125L65.7042 8.09091H68.886L71.1445 16.1023H71.2582L73.538 8.09091H76.7411L72.5011 20.179C72.2975 20.7661 72.0205 21.2775 71.6701 21.7131C71.3245 22.1534 70.8865 22.492 70.3562 22.7287C69.8259 22.9702 69.1867 23.0909 68.4386 23.0909Z" fill="white"/>
<path d="M25.4574 18.8438L25.2514 19.2994L25.2547 19.3008L25.4574 18.8438ZM24.1648 17.7571L23.745 18.0287L23.7481 18.0335L24.1648 17.7571ZM24.0298 14.4261L23.5899 14.1885L23.5899 14.1885L24.0298 14.4261ZM24.9389 13.4318L24.6652 13.0134L24.6652 13.0134L24.9389 13.4318ZM26.2457 12.8636L26.1201 12.3797L26.119 12.38L26.2457 12.8636ZM27.794 12.5938L27.8421 13.0915L27.846 13.091L27.794 12.5938ZM29.3281 12.4091L29.4005 12.9039L29.4064 12.9029L29.3281 12.4091ZM30.1733 12.1392L29.8934 11.7249L29.8934 11.7249L30.1733 12.1392ZM30.0099 10.527L29.6793 10.9021L29.6825 10.9048L30.0099 10.527ZM27.517 10.5199L27.8133 10.9227L27.817 10.9199L27.517 10.5199ZM26.8778 11.4148L26.8374 11.9131L27.2445 11.9462L27.3581 11.5538L26.8778 11.4148ZM24.0795 11.1875L23.5906 11.0827L23.4713 11.6397L24.0391 11.6859L24.0795 11.1875ZM24.9176 9.46875L25.2962 9.79537L25.2978 9.79354L24.9176 9.46875ZM26.5298 8.34659L26.7138 8.81152L26.7155 8.81083L26.5298 8.34659ZM30.571 8.16193L30.4468 8.64626L30.4478 8.64652L30.571 8.16193ZM32.0554 8.82244L31.7708 9.23354L31.7729 9.23499L32.0554 8.82244ZM33.0852 9.97301L32.6444 10.209L32.6454 10.2109L33.0852 9.97301ZM33.4616 19V19.5H33.9616V19H33.4616ZM30.5923 19H30.0923V19.5H30.5923V19ZM30.5923 17.4872H31.0923V16.9872H30.5923V17.4872ZM30.5071 17.4872V16.9872H30.2019L30.0624 17.2587L30.5071 17.4872ZM29.804 18.3892L30.1324 18.7663L30.1358 18.7632L29.804 18.3892ZM28.7457 18.9929L28.9087 19.4656L28.9136 19.4639L28.7457 18.9929ZM29.3636 16.8551L29.5922 17.2999L29.597 17.2973L29.3636 16.8551ZM30.1662 16.1307L29.7452 15.861L29.7452 15.861L30.1662 16.1307ZM30.4574 13.9432H30.9574V13.0218L30.1849 13.524L30.4574 13.9432ZM30.0668 14.1136L30.2079 14.5934L30.2167 14.5906L30.0668 14.1136ZM29.5199 14.2486L29.6114 14.7403L29.6223 14.738L29.5199 14.2486ZM28.9091 14.3551L28.9782 14.8504L28.9894 14.8486L28.9091 14.3551ZM28.3551 14.4332L28.2844 13.9383L28.2826 13.9385L28.3551 14.4332ZM27.4247 14.6818L27.6217 15.1414L27.6217 15.1414L27.4247 14.6818ZM26.8068 15.1435L27.2021 15.4498L27.2056 15.445L26.8068 15.1435ZM27.0341 16.7983L26.7392 17.2022L26.7465 17.2073L27.0341 16.7983ZM27.3182 18.706C26.6803 18.706 26.1309 18.5955 25.6601 18.3867L25.2547 19.3008C25.8729 19.575 26.564 19.706 27.3182 19.706V18.706ZM25.6634 18.3882C25.2008 18.179 24.8445 17.8772 24.5814 17.4807L23.7481 18.0335C24.1195 18.5934 24.6249 19.0161 25.2514 19.2993L25.6634 18.3882ZM24.5846 17.4855C24.3362 17.1016 24.196 16.6006 24.196 15.9531H23.196C23.196 16.745 23.3684 17.4467 23.745 18.0287L24.5846 17.4855ZM24.196 15.9531C24.196 15.4063 24.2966 14.9844 24.4697 14.6638L23.5899 14.1885C23.318 14.6918 23.196 15.2878 23.196 15.9531H24.196ZM24.4697 14.6638C24.6537 14.3233 24.9002 14.0546 25.2127 13.8502L24.6652 13.0134C24.2105 13.3109 23.8511 13.7051 23.5899 14.1885L24.4697 14.6638ZM25.2127 13.8502C25.5468 13.6316 25.9318 13.4628 26.3725 13.3473L26.119 12.38C25.5843 12.5201 25.0981 12.7301 24.6652 13.0134L25.2127 13.8502ZM26.3714 13.3476C26.8367 13.2268 27.3268 13.1412 27.8421 13.0914L27.746 12.0961C27.1818 12.1505 26.6396 12.2448 26.1201 12.3797L26.3714 13.3476ZM27.846 13.091C28.4836 13.0244 29.0026 12.9621 29.4005 12.9038L29.2557 11.9144C28.8771 11.9698 28.3734 12.0305 27.7421 12.0965L27.846 13.091ZM29.4064 12.9029C29.8152 12.8381 30.1854 12.7344 30.4532 12.5535L29.8934 11.7249C29.8108 11.7807 29.6175 11.857 29.2498 11.9153L29.4064 12.9029ZM30.4532 12.5535C30.7811 12.332 30.9361 11.9927 30.9361 11.6136H29.9361C29.9361 11.6662 29.9264 11.689 29.9232 11.6954C29.9208 11.7001 29.9156 11.7099 29.8934 11.7249L30.4532 12.5535ZM30.9361 11.6136V11.571H29.9361V11.6136H30.9361ZM30.9361 11.571C30.9361 11.0075 30.7527 10.509 30.3374 10.1491L29.6825 10.9048C29.8354 11.0374 29.9361 11.235 29.9361 11.571H30.9361ZM30.3405 10.1519C29.9399 9.79876 29.4076 9.65767 28.8168 9.65767V10.6577C29.2581 10.6577 29.5213 10.7628 29.6793 10.9021L30.3405 10.1519ZM28.8168 9.65767C28.2018 9.65767 27.6515 9.79402 27.217 10.1199L27.817 10.9199C28.0265 10.7628 28.3427 10.6577 28.8168 10.6577V9.65767ZM27.2209 10.1171C26.8165 10.4144 26.5345 10.8028 26.3976 11.2757L27.3581 11.5538C27.4295 11.3071 27.5737 11.0989 27.8132 10.9227L27.2209 10.1171ZM26.9183 10.9164L24.12 10.6891L24.0391 11.6859L26.8374 11.9131L26.9183 10.9164ZM24.5684 11.2923C24.6941 10.7061 24.9378 10.2108 25.2962 9.79537L24.539 9.14213C24.0641 9.69261 23.7491 10.3431 23.5906 11.0827L24.5684 11.2923ZM25.2978 9.79354C25.6561 9.37409 26.1235 9.04509 26.7138 8.81152L26.3459 7.88166C25.6199 8.16893 25.0124 8.58803 24.5375 9.14396L25.2978 9.79354ZM26.7155 8.81083C27.3079 8.57388 28.0098 8.44886 28.831 8.44886V7.44886C27.9098 7.44886 27.0775 7.589 26.3441 7.88235L26.7155 8.81083ZM28.831 8.44886C29.3976 8.44886 29.9358 8.51522 30.4468 8.64626L30.6952 7.6776C30.0983 7.52455 29.4764 7.44886 28.831 7.44886V8.44886ZM30.4478 8.64652C30.9546 8.77535 31.3936 8.97239 31.7708 9.23354L32.34 8.41135C31.8555 8.0759 31.3049 7.83261 30.6942 7.67735L30.4478 8.64652ZM31.7729 9.23499C32.1419 9.48764 32.431 9.81042 32.6444 10.209L33.526 9.73702C33.2375 9.1981 32.8402 8.75384 32.3379 8.4099L31.7729 9.23499ZM32.6454 10.2109C32.8488 10.5869 32.9616 11.0576 32.9616 11.642H33.9616C33.9616 10.9292 33.8236 10.2872 33.525 9.73516L32.6454 10.2109ZM32.9616 11.642V19H33.9616V11.642H32.9616ZM33.4616 18.5H30.5923V19.5H33.4616V18.5ZM31.0923 19V17.4872H30.0923V19H31.0923ZM30.5923 16.9872H30.5071V17.9872H30.5923V16.9872ZM30.0624 17.2587C29.9162 17.5432 29.7205 17.7948 29.4722 18.0152L30.1358 18.7632C30.4745 18.4627 30.7476 18.1131 30.9518 17.7158L30.0624 17.2587ZM29.4756 18.0122C29.2347 18.222 28.9381 18.3935 28.5779 18.5219L28.9136 19.4639C29.3772 19.2987 29.7862 19.0678 30.1324 18.7662L29.4756 18.0122ZM28.5827 18.5202C28.2341 18.6404 27.8152 18.706 27.3182 18.706V19.706C27.9007 19.706 28.4336 19.6294 28.9087 19.4656L28.5827 18.5202ZM28.1847 17.6179C28.6964 17.6179 29.17 17.5168 29.5922 17.2998L29.1351 16.4104C28.8755 16.5438 28.5631 16.6179 28.1847 16.6179V17.6179ZM29.597 17.2973C30.0087 17.08 30.3432 16.7813 30.5872 16.4004L29.7452 15.861C29.601 16.0861 29.4004 16.2704 29.1303 16.4129L29.597 17.2973ZM30.5872 16.4004C30.8363 16.0115 30.9574 15.5734 30.9574 15.1009H29.9574C29.9574 15.3953 29.8843 15.6438 29.7452 15.861L30.5872 16.4004ZM30.9574 15.1009V13.9432H29.9574V15.1009H30.9574ZM30.1849 13.524C30.1429 13.5513 30.0599 13.5917 29.9168 13.6366L30.2167 14.5906C30.4051 14.5314 30.5825 14.4582 30.7299 14.3624L30.1849 13.524ZM29.9257 13.634C29.78 13.6768 29.611 13.7187 29.4175 13.7592L29.6223 14.738C29.836 14.6933 30.0315 14.6452 30.2078 14.5933L29.9257 13.634ZM29.4284 13.757C29.2285 13.7942 29.0286 13.8291 28.8288 13.8616L28.9894 14.8486C29.1968 14.8149 29.4041 14.7787 29.6113 14.7401L29.4284 13.757ZM28.84 13.8599C28.636 13.8884 28.4508 13.9145 28.2844 13.9383L28.4258 14.9282C28.5909 14.9046 28.775 14.8787 28.9782 14.8503L28.84 13.8599ZM28.2826 13.9385C27.8946 13.9954 27.541 14.088 27.2278 14.2222L27.6217 15.1414C27.8388 15.0484 28.1054 14.9752 28.4277 14.9279L28.2826 13.9385ZM27.2278 14.2222C26.8976 14.3637 26.6161 14.5666 26.408 14.8419L27.2056 15.445C27.2911 15.3321 27.4215 15.2272 27.6217 15.1414L27.2278 14.2222ZM26.4116 14.8372C26.1849 15.1297 26.0866 15.48 26.0866 15.8537H27.0866C27.0866 15.6592 27.1352 15.536 27.202 15.4498L26.4116 14.8372ZM26.0866 15.8537C26.0866 16.404 26.2958 16.8783 26.7392 17.2021L27.3289 16.3945C27.1758 16.2827 27.0866 16.1273 27.0866 15.8537H26.0866ZM26.7465 17.2073C27.1529 17.493 27.6439 17.6179 28.1847 17.6179V16.6179C27.7974 16.6179 27.5214 16.5297 27.3217 16.3893L26.7465 17.2073ZM35.8089 23.0909H35.3089V23.5909H35.8089V23.0909ZM35.8089 8.09091V7.59091H35.3089V8.09091H35.8089ZM38.7919 8.09091H39.2919V7.59091H38.7919V8.09091ZM38.7919 9.9233H38.2919V10.4233H38.7919V9.9233ZM38.9268 9.9233V10.4233H39.2497L39.3825 10.1291L38.9268 9.9233ZM39.5021 9.02841L39.1175 8.7089L39.117 8.7095L39.5021 9.02841ZM40.4964 8.26136L40.7201 8.70858L40.7221 8.70755L40.4964 8.26136ZM44.2322 8.57386L43.9689 8.99887L43.971 9.00021L44.2322 8.57386ZM45.8445 10.4418L45.3942 10.6592L45.3947 10.6602L45.8445 10.4418ZM45.8587 16.642L45.406 16.4298L45.4054 16.4309L45.8587 16.642ZM44.2678 18.5384L44.5368 18.9598L44.5375 18.9593L44.2678 18.5384ZM40.5249 18.8864L40.3097 19.3377L40.3117 19.3387L40.5249 18.8864ZM39.5234 18.1548L39.1468 18.4837L39.1494 18.4866L39.5234 18.1548ZM38.9268 17.2528L39.3823 17.0465L39.2492 16.7528H38.9268V17.2528ZM38.8345 17.2528V16.7528H38.3345V17.2528H38.8345ZM38.8345 23.0909V23.5909H39.3345V23.0909H38.8345ZM39.8217 16.3722L39.5114 16.7642L39.5148 16.7668L39.8217 16.3722ZM42.3146 16.3651L42.625 16.7571L42.6283 16.7544L42.3146 16.3651ZM43.0888 15.2287L42.6197 15.0556L42.6187 15.0582L43.0888 15.2287ZM43.0959 11.8835L43.5654 11.7115L43.5654 11.7115L43.0959 11.8835ZM42.3217 10.7614L42.6321 10.3693L42.6321 10.3693L42.3217 10.7614ZM39.8146 10.7472L39.5111 10.3498L39.5084 10.3519L39.8146 10.7472ZM39.0405 11.8551L38.5725 11.679L38.5725 11.679L39.0405 11.8551ZM36.3089 23.0909V8.09091H35.3089V23.0909H36.3089ZM35.8089 8.59091H38.7919V7.59091H35.8089V8.59091ZM38.2919 8.09091V9.9233H39.2919V8.09091H38.2919ZM38.7919 10.4233H38.9268V9.4233H38.7919V10.4233ZM39.3825 10.1291C39.4932 9.88403 39.6587 9.62326 39.8872 9.34732L39.117 8.7095C38.8437 9.03962 38.6256 9.37544 38.4712 9.7175L39.3825 10.1291ZM39.8867 9.34792C40.0925 9.10027 40.3663 8.88547 40.7201 8.70858L40.2728 7.81415C39.8122 8.04446 39.4232 8.34102 39.1175 8.7089L39.8867 9.34792ZM40.7221 8.70755C41.0452 8.54414 41.4738 8.44886 42.0305 8.44886V7.44886C41.3657 7.44886 40.7716 7.56192 40.2708 7.81518L40.7221 8.70755ZM42.0305 8.44886C42.7335 8.44886 43.3761 8.63152 43.9689 8.99887L44.4956 8.14886C43.7437 7.68288 42.9185 7.44886 42.0305 7.44886V8.44886ZM43.971 9.00021C44.5483 9.35389 45.0261 9.89693 45.3942 10.6592L46.2947 10.2243C45.8579 9.31993 45.2609 8.6177 44.4935 8.14752L43.971 9.00021ZM45.3947 10.6602C45.7545 11.4009 45.9482 12.3597 45.9482 13.5597H46.9482C46.9482 12.2596 46.7394 11.1398 46.2942 10.2233L45.3947 10.6602ZM45.9482 13.5597C45.9482 14.7252 45.7596 15.6756 45.406 16.4298L46.3114 16.8543C46.7437 15.9324 46.9482 14.8278 46.9482 13.5597H45.9482ZM45.4054 16.4309C45.051 17.1916 44.579 17.745 43.998 18.1174L44.5375 18.9593C45.3012 18.4699 45.8898 17.7592 46.3119 16.8532L45.4054 16.4309ZM43.9987 18.1169C43.4153 18.4893 42.7613 18.6776 42.0234 18.6776V19.6776C42.9427 19.6776 43.785 19.4397 44.5368 18.9598L43.9987 18.1169ZM42.0234 18.6776C41.4895 18.6776 41.0669 18.5891 40.738 18.4341L40.3117 19.3387C40.8067 19.5719 41.3832 19.6776 42.0234 19.6776V18.6776ZM40.74 18.435C40.3843 18.2654 40.1073 18.0596 39.8975 17.823L39.1494 18.4866C39.4604 18.8372 39.851 19.119 40.3097 19.3377L40.74 18.435ZM39.9001 17.826C39.6659 17.5577 39.496 17.2976 39.3823 17.0465L38.4714 17.4592C38.6323 17.8142 38.8602 18.1554 39.1468 18.4837L39.9001 17.826ZM38.9268 16.7528H38.8345V17.7528H38.9268V16.7528ZM38.3345 17.2528V23.0909H39.3345V17.2528H38.3345ZM38.8345 22.5909H35.8089V23.5909H38.8345V22.5909ZM38.2706 13.5455C38.2706 14.2389 38.3666 14.8663 38.5719 15.4175L39.509 15.0683C39.3545 14.6536 39.2706 14.1493 39.2706 13.5455H38.2706ZM38.5719 15.4175C38.7778 15.97 39.0866 16.4279 39.5114 16.7642L40.1321 15.9801C39.8751 15.7767 39.663 15.4817 39.509 15.0683L38.5719 15.4175ZM39.5148 16.7668C39.9547 17.109 40.4809 17.2699 41.0646 17.2699V16.2699C40.673 16.2699 40.3706 16.1656 40.1287 15.9775L39.5148 16.7668ZM41.0646 17.2699C41.654 17.2699 42.1842 17.1061 42.625 16.7571L42.0043 15.973C41.7633 16.1638 41.4601 16.2699 41.0646 16.2699V17.2699ZM42.6283 16.7544C43.0519 16.4132 43.3579 15.9529 43.5588 15.3992L42.6187 15.0582C42.4692 15.4704 42.2592 15.7677 42.001 15.9757L42.6283 16.7544ZM43.5579 15.4018C43.7622 14.8479 43.8587 14.2264 43.8587 13.5455H42.8587C42.8587 14.1335 42.7752 14.6341 42.6197 15.0556L43.5579 15.4018ZM43.8587 13.5455C43.8587 12.8704 43.7649 12.2561 43.5654 11.7115L42.6264 12.0555C42.7773 12.4673 42.8587 12.961 42.8587 13.5455H43.8587ZM43.5654 11.7115C43.364 11.1617 43.0569 10.7057 42.6321 10.3693L42.0114 11.1534C42.2684 11.3568 42.4774 11.6489 42.6264 12.0555L43.5654 11.7115ZM42.6321 10.3693C42.1904 10.0197 41.6575 9.85653 41.0646 9.85653V10.8565C41.4661 10.8565 41.7713 10.9633 42.0114 11.1534L42.6321 10.3693ZM41.0646 9.85653C40.4795 9.85653 39.9518 10.0132 39.5111 10.3498L40.1182 11.1445C40.3593 10.9603 40.665 10.8565 41.0646 10.8565V9.85653ZM39.5084 10.3519C39.0855 10.6795 38.7784 11.1318 38.5725 11.679L39.5085 12.0312C39.6624 11.622 39.8714 11.3357 40.1208 11.1424L39.5084 10.3519ZM38.5725 11.679C38.3666 12.2264 38.2706 12.8521 38.2706 13.5455H39.2706C39.2706 12.9414 39.3546 12.4402 39.5085 12.0312L38.5725 11.679ZM48.4652 23.0909H47.9652V23.5909H48.4652V23.0909ZM48.4652 8.09091V7.59091H47.9652V8.09091H48.4652ZM51.4482 8.09091H51.9482V7.59091H51.4482V8.09091ZM51.4482 9.9233H50.9482V10.4233H51.4482V9.9233ZM51.5831 9.9233V10.4233H51.9059L52.0388 10.1291L51.5831 9.9233ZM52.1584 9.02841L51.7738 8.7089L51.7733 8.7095L52.1584 9.02841ZM53.1527 8.26136L53.3763 8.70858L53.3784 8.70755L53.1527 8.26136ZM56.8885 8.57386L56.6251 8.99887L56.6273 9.00021L56.8885 8.57386ZM58.5007 10.4418L58.0505 10.6592L58.051 10.6602L58.5007 10.4418ZM58.5149 16.642L58.0622 16.4298L58.0617 16.4309L58.5149 16.642ZM56.924 18.5384L57.193 18.9598L57.1938 18.9593L56.924 18.5384ZM53.1811 18.8864L52.9659 19.3377L52.968 19.3387L53.1811 18.8864ZM52.1797 18.1548L51.803 18.4837L51.8057 18.4866L52.1797 18.1548ZM51.5831 17.2528L52.0385 17.0465L51.9055 16.7528H51.5831V17.2528ZM51.4908 17.2528V16.7528H50.9908V17.2528H51.4908ZM51.4908 23.0909V23.5909H51.9908V23.0909H51.4908ZM52.478 16.3722L52.1676 16.7642L52.171 16.7668L52.478 16.3722ZM54.9709 16.3651L55.2812 16.7571L55.2845 16.7544L54.9709 16.3651ZM55.745 15.2287L55.2759 15.0556L55.275 15.0582L55.745 15.2287ZM55.7521 11.8835L56.2216 11.7115L56.2216 11.7115L55.7521 11.8835ZM54.978 10.7614L55.2883 10.3693L55.2883 10.3693L54.978 10.7614ZM52.4709 10.7472L52.1674 10.3498L52.1647 10.3519L52.4709 10.7472ZM51.6967 11.8551L51.2288 11.679L51.2288 11.679L51.6967 11.8551ZM48.9652 23.0909V8.09091H47.9652V23.0909H48.9652ZM48.4652 8.59091H51.4482V7.59091H48.4652V8.59091ZM50.9482 8.09091V9.9233H51.9482V8.09091H50.9482ZM51.4482 10.4233H51.5831V9.4233H51.4482V10.4233ZM52.0388 10.1291C52.1495 9.88403 52.315 9.62326 52.5435 9.34732L51.7733 8.7095C51.4999 9.03962 51.2819 9.37544 51.1274 9.7175L52.0388 10.1291ZM52.543 9.34792C52.7487 9.10027 53.0225 8.88547 53.3763 8.70858L52.9291 7.81415C52.4685 8.04446 52.0794 8.34102 51.7738 8.7089L52.543 9.34792ZM53.3784 8.70755C53.7015 8.54414 54.1301 8.44886 54.6868 8.44886V7.44886C54.0219 7.44886 53.4278 7.56192 52.927 7.81518L53.3784 8.70755ZM54.6868 8.44886C55.3897 8.44886 56.0323 8.63152 56.6251 8.99887L57.1519 8.14886C56.4 7.68288 55.5748 7.44886 54.6868 7.44886V8.44886ZM56.6273 9.00021C57.2046 9.35389 57.6823 9.89693 58.0505 10.6592L58.951 10.2243C58.5142 9.31993 57.9171 8.6177 57.1497 8.14752L56.6273 9.00021ZM58.051 10.6602C58.4107 11.4009 58.6044 12.3597 58.6044 13.5597H59.6044C59.6044 12.2596 59.3956 11.1398 58.9505 10.2233L58.051 10.6602ZM58.6044 13.5597C58.6044 14.7252 58.4159 15.6756 58.0622 16.4298L58.9676 16.8543C59.3999 15.9324 59.6044 14.8278 59.6044 13.5597H58.6044ZM58.0617 16.4309C57.7073 17.1916 57.2353 17.745 56.6542 18.1174L57.1938 18.9593C57.9574 18.4699 58.546 17.7592 58.9681 16.8532L58.0617 16.4309ZM56.655 18.1169C56.0715 18.4893 55.4176 18.6776 54.6797 18.6776V19.6776C55.599 19.6776 56.4412 19.4397 57.193 18.9598L56.655 18.1169ZM54.6797 18.6776C54.1457 18.6776 53.7232 18.5891 53.3943 18.4341L52.968 19.3387C53.4629 19.5719 54.0394 19.6776 54.6797 19.6776V18.6776ZM53.3963 18.435C53.0405 18.2654 52.7636 18.0596 52.5537 17.823L51.8057 18.4866C52.1166 18.8372 52.5073 19.119 52.9659 19.3377L53.3963 18.435ZM52.5563 17.826C52.3221 17.5577 52.1523 17.2976 52.0385 17.0465L51.1277 17.4592C51.2885 17.8142 51.5164 18.1554 51.803 18.4837L52.5563 17.826ZM51.5831 16.7528H51.4908V17.7528H51.5831V16.7528ZM50.9908 17.2528V23.0909H51.9908V17.2528H50.9908ZM51.4908 22.5909H48.4652V23.5909H51.4908V22.5909ZM50.9268 13.5455C50.9268 14.2389 51.0229 14.8663 51.2282 15.4175L52.1653 15.0683C52.0108 14.6536 51.9268 14.1493 51.9268 13.5455H50.9268ZM51.2282 15.4175C51.434 15.97 51.7428 16.4279 52.1676 16.7642L52.7883 15.9801C52.5313 15.7767 52.3193 15.4817 52.1653 15.0683L51.2282 15.4175ZM52.171 16.7668C52.6109 17.109 53.1371 17.2699 53.7209 17.2699V16.2699C53.3293 16.2699 53.0269 16.1656 52.785 15.9775L52.171 16.7668ZM53.7209 17.2699C54.3102 17.2699 54.8404 17.1061 55.2812 16.7571L54.6605 15.973C54.4195 16.1638 54.1164 16.2699 53.7209 16.2699V17.2699ZM55.2845 16.7544C55.7081 16.4132 56.0142 15.9529 56.2151 15.3992L55.275 15.0582C55.1255 15.4704 54.9154 15.7677 54.6572 15.9757L55.2845 16.7544ZM56.2141 15.4018C56.4184 14.8479 56.5149 14.2264 56.5149 13.5455H55.5149C55.5149 14.1335 55.4315 14.6341 55.2759 15.0556L56.2141 15.4018ZM56.5149 13.5455C56.5149 12.8704 56.4211 12.2561 56.2216 11.7115L55.2826 12.0555C55.4335 12.4673 55.5149 12.961 55.5149 13.5455H56.5149ZM56.2216 11.7115C56.0202 11.1617 55.7132 10.7057 55.2883 10.3693L54.6676 11.1534C54.9246 11.3568 55.1337 11.6489 55.2826 12.0555L56.2216 11.7115ZM55.2883 10.3693C54.8466 10.0197 54.3137 9.85653 53.7209 9.85653V10.8565C54.1224 10.8565 54.4275 10.9633 54.6676 11.1534L55.2883 10.3693ZM53.7209 9.85653C53.1357 9.85653 52.608 10.0132 52.1674 10.3498L52.7744 11.1445C53.0156 10.9603 53.3212 10.8565 53.7209 10.8565V9.85653ZM52.1647 10.3519C51.7418 10.6795 51.4347 11.1318 51.2288 11.679L52.1647 12.0312C52.3186 11.622 52.5276 11.3357 52.7771 11.1424L52.1647 10.3519ZM51.2288 11.679C51.0228 12.2264 50.9268 12.8521 50.9268 13.5455H51.9268C51.9268 12.9414 52.0108 12.4402 52.1647 12.0312L51.2288 11.679ZM64.147 4.45455H64.647V3.95455H64.147V4.45455ZM64.147 19V19.5H64.647V19H64.147ZM61.1214 19H60.6214V19.5H61.1214V19ZM61.1214 4.45455V3.95455H60.6214V4.45455H61.1214ZM63.647 4.45455V19H64.647V4.45455H63.647ZM64.147 18.5H61.1214V19.5H64.147V18.5ZM61.6214 19V4.45455H60.6214V19H61.6214ZM61.1214 4.95455H64.147V3.95455H61.1214V4.95455ZM67.359 22.9986L67.4491 22.5067L67.4435 22.5058L67.359 22.9986ZM66.5352 22.7784L66.0565 22.6339L65.9256 23.0676L66.3443 23.2405L66.5352 22.7784ZM67.217 20.5199L67.3636 20.0419L66.8834 19.8946L66.7383 20.3754L67.217 20.5199ZM68.1758 20.6974L68.1591 21.1972L68.1594 21.1972L68.1758 20.6974ZM68.9215 20.4986L68.6442 20.0825L68.6399 20.0855L68.9215 20.4986ZM69.44 19.7741L69.906 19.9554L69.9067 19.9536L69.44 19.7741ZM69.6175 19.3125L70.0842 19.492L70.15 19.3209L70.0897 19.1479L69.6175 19.3125ZM65.7042 8.09091V7.59091H65.0003L65.2321 8.25555L65.7042 8.09091ZM68.886 8.09091L69.3673 7.95524L69.2645 7.59091H68.886V8.09091ZM71.1445 16.1023L70.6633 16.2379L70.766 16.6023H71.1445V16.1023ZM71.2582 16.1023V16.6023H71.6357L71.7391 16.2391L71.2582 16.1023ZM73.538 8.09091V7.59091H73.1604L73.0571 7.95406L73.538 8.09091ZM76.7411 8.09091L77.2129 8.2564L77.4464 7.59091H76.7411V8.09091ZM72.5011 20.179L72.0292 20.0135L72.0287 20.0152L72.5011 20.179ZM71.6701 21.7131L71.2805 21.3997L71.2768 21.4043L71.6701 21.7131ZM70.3562 22.7287L70.1523 22.2721L70.149 22.2736L70.3562 22.7287ZM68.4386 22.5909C68.0816 22.5909 67.7522 22.5623 67.4491 22.5068L67.269 23.4904C67.6382 23.558 68.0284 23.5909 68.4386 23.5909V22.5909ZM67.4435 22.5058C67.1345 22.4528 66.8985 22.3875 66.726 22.3163L66.3443 23.2405C66.6074 23.3492 66.9207 23.4307 67.2745 23.4914L67.4435 22.5058ZM67.0138 22.9229L67.6956 20.6644L66.7383 20.3754L66.0565 22.6339L67.0138 22.9229ZM67.0704 20.9979C67.4555 21.116 67.8199 21.1859 68.1591 21.1972L68.1924 20.1977C67.9635 20.1901 67.6886 20.1415 67.3636 20.0419L67.0704 20.9979ZM68.1594 21.1972C68.5381 21.2096 68.8948 21.122 69.2032 20.9117L68.6399 20.0855C68.5316 20.1593 68.3911 20.2042 68.1922 20.1977L68.1594 21.1972ZM69.1989 20.9146C69.527 20.6959 69.7515 20.3526 69.906 19.9554L68.974 19.5929C68.8633 19.8775 68.7422 20.0172 68.6442 20.0826L69.1989 20.9146ZM69.9067 19.9536L70.0842 19.492L69.1509 19.133L68.9733 19.5947L69.9067 19.9536ZM70.0897 19.1479L66.1763 7.92627L65.2321 8.25555L69.1454 19.4771L70.0897 19.1479ZM65.7042 8.59091H68.886V7.59091H65.7042V8.59091ZM68.4048 8.22658L70.6633 16.2379L71.6258 15.9666L69.3673 7.95524L68.4048 8.22658ZM71.1445 16.6023H71.2582V15.6023H71.1445V16.6023ZM71.7391 16.2391L74.0189 8.22776L73.0571 7.95406L70.7773 15.9654L71.7391 16.2391ZM73.538 8.59091H76.7411V7.59091H73.538V8.59091ZM76.2693 7.92541L72.0292 20.0135L72.9729 20.3445L77.2129 8.2564L76.2693 7.92541ZM72.0287 20.0152C71.8418 20.5541 71.5911 21.0135 71.2805 21.3997L72.0597 22.0264C72.4499 21.5414 72.7531 20.9781 72.9735 20.3428L72.0287 20.0152ZM71.2768 21.4043C70.9833 21.7783 70.6113 22.0672 70.1524 22.2721L70.56 23.1853C71.1617 22.9167 71.6656 22.5285 72.0634 22.0218L71.2768 21.4043ZM70.149 22.2736C69.6994 22.4784 69.1347 22.5909 68.4386 22.5909V23.5909C69.2386 23.5909 69.9523 23.462 70.5634 23.1837L70.149 22.2736Z" fill="black" mask="url(#path-1-outside-1_664_12)"/>
<path d="M76.7102 6.99006V4.45455H88.6562V6.99006H84.2031V19H81.1634V6.99006H76.7102ZM89.4339 19V8.09091H92.3672V9.99432H92.4808C92.6797 9.31723 93.0135 8.80587 93.4822 8.46023C93.951 8.10985 94.4908 7.93466 95.1016 7.93466C95.2531 7.93466 95.4164 7.94413 95.5916 7.96307C95.7668 7.98201 95.9207 8.00805 96.0533 8.04119V10.7259C95.9112 10.6832 95.7147 10.6454 95.4638 10.6122C95.2128 10.5791 94.9832 10.5625 94.7749 10.5625C94.3298 10.5625 93.9321 10.6596 93.5817 10.8537C93.236 11.0431 92.9614 11.3082 92.7578 11.6491C92.5589 11.9901 92.4595 12.383 92.4595 12.8281V19H89.4339ZM100.416 19.206C99.7198 19.206 99.0996 19.0852 98.555 18.8438C98.0105 18.5975 97.5797 18.2353 97.2624 17.7571C96.9499 17.2741 96.7937 16.6728 96.7937 15.9531C96.7937 15.3471 96.9049 14.8381 97.1275 14.4261C97.35 14.0142 97.6531 13.6828 98.0366 13.4318C98.4201 13.1809 98.8557 12.9915 99.3434 12.8636C99.8358 12.7358 100.352 12.6458 100.892 12.5938C101.526 12.5275 102.038 12.4659 102.426 12.4091C102.814 12.3475 103.096 12.2576 103.271 12.1392C103.446 12.0208 103.534 11.8456 103.534 11.6136V11.571C103.534 11.1212 103.392 10.7732 103.108 10.527C102.828 10.2808 102.431 10.1577 101.914 10.1577C101.37 10.1577 100.937 10.2784 100.615 10.5199C100.293 10.7566 100.08 11.0549 99.9755 11.4148L97.1772 11.1875C97.3192 10.5246 97.5986 9.9517 98.0153 9.46875C98.4319 8.98106 98.9693 8.60701 99.6275 8.34659C100.29 8.08144 101.057 7.94886 101.929 7.94886C102.535 7.94886 103.115 8.01989 103.669 8.16193C104.227 8.30398 104.722 8.52415 105.153 8.82244C105.589 9.12074 105.932 9.50426 106.183 9.97301C106.434 10.437 106.559 10.9934 106.559 11.642V19H103.69V17.4872H103.605C103.43 17.8281 103.195 18.1288 102.902 18.3892C102.608 18.6449 102.255 18.8461 101.843 18.9929C101.431 19.1349 100.956 19.206 100.416 19.206ZM101.282 17.1179C101.727 17.1179 102.12 17.0303 102.461 16.8551C102.802 16.6752 103.07 16.4337 103.264 16.1307C103.458 15.8277 103.555 15.4844 103.555 15.1009V13.9432C103.46 14.0047 103.33 14.0616 103.164 14.1136C103.003 14.161 102.821 14.206 102.618 14.2486C102.414 14.2865 102.21 14.322 102.007 14.3551C101.803 14.3835 101.618 14.4096 101.453 14.4332C101.098 14.4853 100.788 14.5682 100.522 14.6818C100.257 14.7955 100.051 14.9493 99.9045 15.1435C99.7577 15.3329 99.6843 15.5696 99.6843 15.8537C99.6843 16.2656 99.8335 16.5805 100.132 16.7983C100.435 17.0114 100.818 17.1179 101.282 17.1179ZM113.836 19.2131C112.718 19.2131 111.757 18.9763 110.952 18.5028C110.152 18.0246 109.536 17.3617 109.105 16.5142C108.679 15.6667 108.466 14.6913 108.466 13.5881C108.466 12.4706 108.682 11.4905 109.113 10.6477C109.548 9.80019 110.166 9.13968 110.966 8.66619C111.766 8.18797 112.718 7.94886 113.821 7.94886C114.773 7.94886 115.606 8.12169 116.321 8.46733C117.036 8.81297 117.602 9.2983 118.019 9.9233C118.435 10.5483 118.665 11.2822 118.708 12.125H115.853C115.772 11.5805 115.559 11.1425 115.213 10.8111C114.873 10.4749 114.425 10.3068 113.871 10.3068C113.402 10.3068 112.993 10.4347 112.642 10.6903C112.297 10.9413 112.027 11.3082 111.833 11.7912C111.639 12.2741 111.542 12.8589 111.542 13.5455C111.542 14.2415 111.636 14.8333 111.826 15.321C112.02 15.8087 112.292 16.1804 112.642 16.4361C112.993 16.6918 113.402 16.8196 113.871 16.8196C114.217 16.8196 114.527 16.7486 114.801 16.6065C115.081 16.4645 115.31 16.2585 115.49 15.9886C115.675 15.714 115.796 15.3849 115.853 15.0014H118.708C118.66 15.8348 118.433 16.5687 118.026 17.2031C117.623 17.8329 117.067 18.3253 116.357 18.6804C115.647 19.0355 114.806 19.2131 113.836 19.2131ZM123.386 15.8608L123.393 12.2315H123.834L127.328 8.09091H130.801L126.107 13.5739H125.389L123.386 15.8608ZM120.645 19V4.45455H123.67V19H120.645ZM127.463 19L124.253 14.2486L126.27 12.1108L131.007 19H127.463Z" fill="#2196F3"/>
<path d="M3.36538 12.0544C2.01394 11.5736 1.33822 11.3331 1.13689 10.9684C0.962426 10.6524 0.954262 10.2708 1.11506 9.94761C1.30062 9.57464 1.96545 9.30554 3.2951 8.76735L15.8282 3.69444C17.1377 3.16438 17.7925 2.89935 18.2062 3.03523C18.5652 3.15318 18.8468 3.43478 18.9648 3.79383C19.1007 4.20748 18.8356 4.86226 18.3056 6.17182L13.2327 18.7048C12.6945 20.0345 12.4254 20.6994 12.0524 20.885C11.7292 21.0457 11.3476 21.0376 11.0315 20.8631C10.6669 20.6617 10.4264 19.9861 9.94557 18.6346L8.4733 14.497C8.37977 14.2341 8.333 14.1026 8.25656 13.9928C8.18891 13.8955 8.10448 13.8111 8.00715 13.7434C7.8974 13.667 7.76593 13.6202 7.50301 13.5267L3.36538 12.0544Z" stroke="#2196F3" stroke-width="2" stroke-linecap="round" stroke-linejoin="round"/>
</svg>